<svg width="46" height="46" viewBox="0 0 46 46" fill="none" xmlns="http://www.w3.org/2000/svg">
<path d="M8.39932 0C3.74647 0 0 3.74647 0 8.39932V37.6007C0 42.2536 3.74647 46 8.39932 46H24.2262V28.0169H19.471V21.5424H24.2262V16.0109C24.2262 11.665 27.0359 7.67482 33.5081 7.67482C36.1287 7.67482 38.0665 7.9264 38.0665 7.9264L37.9141 13.9725C37.9141 13.9725 35.9378 13.9539 33.7812 13.9539C31.4473 13.9539 31.073 15.0293 31.073 16.8145V21.5424H38.0995L37.7933 28.0169H31.073V46.0001H37.6007C42.2535 46.0001 46 42.2536 46 37.6008V8.39937C46 3.74652 42.2535 4.6e-05 37.6007 4.6e-05H8.39928L8.39932 0Z" fill="#989898"/>
</svg>
