<svg width="48" height="48" viewBox="0 0 48 48" fill="none" xmlns="http://www.w3.org/2000/svg">
<path d="M24.0001 18.2134C22.8556 18.2134 21.7368 18.5528 20.7852 19.1886C19.8336 19.8245 19.0919 20.7282 18.6539 21.7856C18.2159 22.843 18.1013 24.0065 18.3246 25.129C18.5479 26.2515 19.099 27.2826 19.9083 28.0919C20.7176 28.9012 21.7487 29.4523 22.8712 29.6756C23.9937 29.8988 25.1572 29.7842 26.2145 29.3463C27.2719 28.9083 28.1757 28.1666 28.8115 27.215C29.4474 26.2634 29.7867 25.1446 29.7867 24.0001C29.7867 23.2402 29.6371 22.4877 29.3463 21.7856C29.0555 21.0835 28.6292 20.4456 28.0919 19.9083C27.5545 19.3709 26.9166 18.9447 26.2145 18.6539C25.5125 18.3631 24.76 18.2134 24.0001 18.2134ZM47.1701 12.4967C47.1578 10.6948 46.826 8.90941 46.1901 7.22341C45.7217 5.98969 44.9971 4.8693 44.064 3.93618C43.1309 3.00306 42.0105 2.27842 40.7767 1.81008C39.0907 1.17416 37.3053 0.842357 35.5034 0.830081C32.4934 0.666748 31.6067 0.666748 24.0001 0.666748C16.3934 0.666748 15.5067 0.666748 12.4967 0.830081C10.6948 0.842357 8.90941 1.17416 7.22341 1.81008C5.98969 2.27842 4.8693 3.00306 3.93618 3.93618C3.00306 4.8693 2.27842 5.98969 1.81008 7.22341C1.17416 8.90941 0.842357 10.6948 0.830081 12.4967C0.666748 15.5067 0.666748 16.3934 0.666748 24.0001C0.666748 31.6067 0.666748 32.4934 0.830081 35.5034C0.855197 37.3117 1.18655 39.1026 1.81008 40.8001C2.27635 42.0282 3.00038 43.1421 3.93341 44.0667C4.86253 45.0055 5.98532 45.7301 7.22341 46.1901C8.90941 46.826 10.6948 47.1578 12.4967 47.1701C15.5067 47.3334 16.3934 47.3334 24.0001 47.3334C31.6067 47.3334 32.4934 47.3334 35.5034 47.1701C37.3053 47.1578 39.0907 46.826 40.7767 46.1901C42.0148 45.7301 43.1376 45.0055 44.0667 44.0667C44.9998 43.1421 45.7238 42.0282 46.1901 40.8001C46.8254 39.1058 47.1571 37.3128 47.1701 35.5034C47.3334 32.4934 47.3334 31.6067 47.3334 24.0001C47.3334 16.3934 47.3334 15.5067 47.1701 12.4967ZM41.2434 31.1634C41.1685 32.6033 40.8612 34.0216 40.3334 35.3634C39.8804 36.4827 39.207 37.4994 38.3532 38.3532C37.4994 39.207 36.4827 39.8804 35.3634 40.3334C34.0089 40.8318 32.5827 41.1076 31.1401 41.1501H16.8601C15.4175 41.1076 13.9912 40.8318 12.6367 40.3334C11.4797 39.9034 10.4347 39.2174 9.58008 38.3267C8.73464 37.4897 8.08172 36.4784 7.66675 35.3634C7.16638 34.0104 6.89816 32.5825 6.87341 31.1401V16.8601C6.89816 15.4177 7.16638 13.9898 7.66675 12.6367C8.09674 11.4797 8.78272 10.4347 9.67342 9.58008C10.5142 8.7392 11.5244 8.08697 12.6367 7.66675C13.9912 7.16836 15.4175 6.89257 16.8601 6.85008H31.1401C32.5827 6.89257 34.0089 7.16836 35.3634 7.66675C36.5205 8.09674 37.5654 8.78272 38.4201 9.67342C39.2655 10.5105 39.9184 11.5217 40.3334 12.6367C40.8318 13.9912 41.1076 15.4175 41.1501 16.8601V24.0001C41.1501 28.8067 41.3134 29.2967 41.2434 31.1401V31.1634ZM37.5101 13.8034C37.2323 13.0497 36.7943 12.3652 36.2262 11.7972C35.6582 11.2292 34.9738 10.7912 34.2201 10.5134C33.1852 10.1547 32.0952 9.98093 31.0001 10.0001H17.0001C15.8994 10.0108 14.8092 10.2162 13.7801 10.6067C13.0379 10.8719 12.3607 11.2921 11.7934 11.8392C11.2262 12.3864 10.7819 13.048 10.4901 13.7801C10.1512 14.8193 9.98568 15.9071 10.0001 17.0001V31.0001C10.0232 32.0995 10.2282 33.1876 10.6067 34.2201C10.8846 34.9738 11.3226 35.6582 11.8906 36.2262C12.4586 36.7943 13.143 37.2323 13.8967 37.5101C14.8923 37.8762 15.9399 38.081 17.0001 38.1167H31.0001C32.1008 38.106 33.1909 37.9006 34.2201 37.5101C34.9738 37.2323 35.6582 36.7943 36.2262 36.2262C36.7943 35.6582 37.2323 34.9738 37.5101 34.2201C37.9006 33.1909 38.106 32.1008 38.1167 31.0001V17.0001C38.1174 15.8983 37.9117 14.8061 37.5101 13.7801V13.8034ZM24.0001 32.9134C22.8307 32.9134 21.6727 32.6827 20.5926 32.2345C19.5125 31.7863 18.5315 31.1293 17.7056 30.3013C16.8798 29.4734 16.2255 28.4906 15.7801 27.4093C15.3347 26.328 15.107 25.1695 15.1101 24.0001C15.1101 22.2362 15.6334 20.512 16.6139 19.0457C17.5943 17.5794 18.9878 16.437 20.6178 15.763C22.2479 15.0891 24.0413 14.9139 25.7709 15.2598C27.5006 15.6056 29.0887 16.4568 30.3343 17.7057C31.58 18.9546 32.427 20.545 32.7683 22.2755C33.1096 24.0061 32.9298 25.799 32.2515 27.4273C31.5733 29.0555 30.4273 30.446 28.9584 31.4226C27.4895 32.3992 25.764 32.918 24.0001 32.9134ZM33.3334 16.8367C32.8176 16.7822 32.3403 16.5386 31.9933 16.153C31.6464 15.7674 31.4545 15.2671 31.4545 14.7484C31.4545 14.2297 31.6464 13.7294 31.9933 13.3438C32.3403 12.9582 32.8176 12.7147 33.3334 12.6601C33.8492 12.7147 34.3266 12.9582 34.6735 13.3438C35.0204 13.7294 35.2124 14.2297 35.2124 14.7484C35.2124 15.2671 35.0204 15.7674 34.6735 16.153C34.3266 16.5386 33.8492 16.7822 33.3334 16.8367Z" fill="#989898"/>
</svg>
