<svg width="41" height="52" viewBox="0 0 41 52" fill="none" xmlns="http://www.w3.org/2000/svg">
<path d="M36.7045 47.7159H25.3583C27.2643 46.014 29.0617 44.1943 30.7401 42.2676C37.0372 35.0253 40.375 27.3908 40.375 20.1875C40.375 14.8334 38.2481 9.69867 34.4622 5.91278C30.6763 2.12689 25.5416 0 20.1875 0C14.8334 0 9.69867 2.12689 5.91278 5.91278C2.12689 9.69867 0 14.8334 0 20.1875C0 27.3908 3.32864 35.0253 9.63494 42.2676C11.3133 44.1943 13.1107 46.014 15.0167 47.7159H3.67045C3.18372 47.7159 2.71693 47.9093 2.37275 48.2534C2.02858 48.5976 1.83523 49.0644 1.83523 49.5511C1.83523 50.0379 2.02858 50.5047 2.37275 50.8488C2.71693 51.193 3.18372 51.3864 3.67045 51.3864H36.7045C37.1913 51.3864 37.6581 51.193 38.0022 50.8488C38.3464 50.5047 38.5398 50.0379 38.5398 49.5511C38.5398 49.0644 38.3464 48.5976 38.0022 48.2534C37.6581 47.9093 37.1913 47.7159 36.7045 47.7159ZM20.1875 12.8466C21.6394 12.8466 23.0587 13.2771 24.2659 14.0838C25.4731 14.8904 26.414 16.0369 26.9696 17.3783C27.5252 18.7196 27.6706 20.1956 27.3874 21.6196C27.1041 23.0436 26.4049 24.3517 25.3783 25.3783C24.3517 26.405 23.0436 27.1041 21.6196 27.3874C20.1956 27.6706 18.7196 27.5252 17.3783 26.9696C16.0369 26.414 14.8904 25.4731 14.0838 24.2659C13.2771 23.0587 12.8466 21.6394 12.8466 20.1875C12.8466 18.2406 13.62 16.3734 14.9967 14.9967C16.3734 13.62 18.2406 12.8466 20.1875 12.8466Z" fill="#989898"/>
</svg>
