<svg width="34" height="34" viewBox="0 0 34 34" fill="none" xmlns="http://www.w3.org/2000/svg">
<path d="M31.577 33.6666C13.8041 33.6916 0.314521 20.0416 0.333271 2.42283C0.333271 1.27075 1.2666 0.333252 2.4166 0.333252H7.9166C8.94785 0.333252 9.82494 1.09159 9.97702 2.11242C10.3397 4.56045 11.0519 6.94377 12.0916 9.1895L12.3062 9.652C12.4503 9.96323 12.4813 10.315 12.3939 10.6467C12.3064 10.9783 12.1059 11.269 11.827 11.4687C10.1229 12.6853 9.47286 15.1333 10.7999 17.0416C12.4707 19.4444 14.5561 21.5304 16.9583 23.202C18.8687 24.527 21.3166 23.877 22.5312 22.1749C22.7306 21.8952 23.0216 21.694 23.3537 21.6061C23.6858 21.5182 24.0382 21.5492 24.3499 21.6937L24.8104 21.9062C27.0562 22.9478 29.4395 23.6603 31.8874 24.0228C32.9083 24.1749 33.6666 25.052 33.6666 26.0853V31.5833C33.6666 31.857 33.6126 32.1281 33.5078 32.381C33.403 32.6339 33.2493 32.8636 33.0557 33.0571C32.862 33.2506 32.6321 33.404 32.3791 33.5086C32.1261 33.6132 31.855 33.6669 31.5812 33.6666H31.577Z" fill="#989898"/>
</svg>
